Coordinates
version=1
nRows=39
nColumns=18
inDegrees=yes

Units are S.I. units (second, meters, Newtons, ...)
If the header above contains a line with 'inDegrees', this indicates whether rotational values are in degrees (yes) or radians (no).

endheader
time	TH_y	TH_x	TH_z	TH_x_trans	TH_y_trans	TH_z_trans	SC_y	SC_z	SC_x	AC_y	AC_z	AC_x	GH_y	GH_z	GH_yy	EL_x	PS_y
     52.25000000	   -155.59565673	     -1.11039313	      4.65134165	      0.08976786	      1.52251666	     -0.00357328	    -22.29531105	     -5.27385087	    -10.10757716	     93.66539372	    -13.53276933	     52.30979304	    -65.99496711	    121.76517178	    -16.45008944	     96.12677153	    110.98445479
     52.26000000	   -155.71115513	     -1.09255855	      4.88540774	      0.09000064	      1.52286320	     -0.00379866	    -22.33214848	     -4.99316869	     -9.85108952	     93.64938625	    -13.28611063	     52.07051614	    -65.91191961	    122.21234187	    -16.54571361	     96.11473052	    111.33364234
     52.27000000	   -155.83258348	     -1.06382168	      5.12596701	      0.09020473	      1.52323311	     -0.00403624	    -22.36869164	     -4.70921714	     -9.60551606	     93.65296113	    -13.05234259	     51.81519601	    -65.81870782	    122.62831149	    -16.63561018	     96.10044874	    111.67751139
     52.28000000	   -155.96326432	     -1.01914030	      5.37215116	      0.09038181	      1.52363215	     -0.00429133	    -22.39879377	     -4.42110388	     -9.37259198	     93.67340065	    -12.83207930	     51.54906626	    -65.71521419	    123.00997996	    -16.72108502	     96.08647657	    112.00539188
     52.29000000	   -156.10055741	     -0.96524338	      5.62517085	      0.09053451	      1.52404767	     -0.00455331	    -22.42790462	     -4.13165836	     -9.15135318	     93.71087735	    -12.62604608	     51.26707519	    -65.59948138	    123.35234300	    -16.80445556	     96.07191635	    112.29505994
     52.30000000	   -156.24628551	     -0.89725909	      5.88219799	      0.09066514	      1.52448503	     -0.00483058	    -22.44943928	     -3.83972174	     -8.94404471	     93.75917246	    -12.43612593	     50.97092237	    -65.47348440	    123.65610856	    -16.88661197	     96.06072927	    112.56908054
     52.31000000	   -156.39960533	     -0.81940801	      6.14262178	      0.09077534	      1.52493584	     -0.00511295	    -22.46690493	     -3.54656165	     -8.74935713	     93.81805484	    -12.26210504	     50.65787941	    -65.33482514	    123.91684701	    -16.97003895	     96.05194871	    112.81876659
     52.32000000	   -156.56080748	     -0.73215885	      6.41265211	      0.09088708	      1.52539474	     -0.00540656	    -22.47351455	     -3.27836017	     -8.56570587	     93.90568588	    -12.09394130	     50.38035505	    -65.20916098	    124.20007264	    -17.02055189	     96.04053741	    112.84412258
     52.33000000	   -156.72206248	     -0.64143165	      6.67152826	      0.09096377	      1.52585440	     -0.00569432	    -22.48632823	     -2.97742121	     -8.39327514	     93.96315906	    -11.95263513	     50.01763510	    -65.03601574	    124.35263880	    -17.12821746	     96.04875300	    113.23956073
     52.34000000	   -156.88831249	     -0.54522907	      6.94174581	      0.09106486	      1.52631025	     -0.00598838	    -22.48793204	     -2.72781495	     -8.22606667	     94.07314819	    -11.80148094	     49.74842064	    -64.90274258	    124.59818323	    -17.16903903	     96.04599981	    113.25323690
     52.35000000	   -157.06548156	     -0.44566224	      7.19287462	      0.09109954	      1.52676422	     -0.00627004	    -22.48272487	     -2.40558601	     -8.08726591	     94.07034324	    -11.72721202	     49.23475751	    -64.66390245	    124.55137215	    -17.34595716	     96.06746142	    113.60787513
     52.36000000	   -157.23142255	     -0.35336885	      7.45497404	      0.09119966	      1.52718740	     -0.00654844	    -22.48056693	     -2.18065533	     -7.93173725	     94.19228874	    -11.58864027	     48.97733515	    -64.52732290	    124.76884007	    -17.38105028	     96.07352209	    113.59727757
     52.37000000	   -157.44158391	     -0.25054527	      7.66791928	      0.09109247	      1.52763252	     -0.00679208	    -22.46076551	     -1.69911257	     -7.87566622	     93.89142846	    -11.73297282	     47.80924795	    -64.02026734	    124.01482903	    -17.86920039	     96.09214284	    113.71435104
     52.38000000	   -157.60362980	     -0.16888029	      7.91094057	      0.09119834	      1.52800676	     -0.00704523	    -22.45094784	     -1.50573379	     -7.72441665	     94.01308952	    -11.59694186	     47.57722479	    -63.89025667	    124.22727562	    -17.90008680	     96.10766593	    113.70728141
     52.39000000	   -157.75820963	     -0.09663113	      8.13971142	      0.09130365	      1.52835140	     -0.00727834	    -22.44506962	     -1.32712642	     -7.57310294	     94.13231750	    -11.46406077	     47.34247668	    -63.75856932	    124.42918522	    -17.93426526	     96.12115869	    113.71092579
     52.40000000	   -157.95104233	     -0.02237914	      8.32192989	      0.09121620	      1.52869995	     -0.00747279	    -22.43731140	     -0.89142988	     -7.52238302	     93.80326373	    -11.61056395	     46.21113562	    -63.22770512	    123.67163390	    -18.41920509	     96.13822646	    113.79878776
     52.41000000	   -158.09505330	      0.03057136	      8.52083465	      0.09131915	      1.52897596	     -0.00767010	    -22.42643524	     -0.74118719	     -7.37153816	     93.91180502	    -11.47772290	     45.99551067	    -63.10363216	    123.86954165	    -18.45570340	     96.14806786	    113.80854260
     52.42000000	   -158.21418982	      0.06167553	      8.70507015	      0.09141936	      1.52920810	     -0.00783140	    -22.45138105	     -0.59635719	     -7.21869900	     94.01021427	    -11.35348832	     45.73984877	    -62.95614386	    124.01500462	    -18.51770067	     96.13900986	    113.90446552
     52.43000000	   -158.36090314	      0.10258873	      8.85961046	      0.09145625	      1.52943349	     -0.00799794	    -22.42534434	     -0.39380596	     -7.09212263	     93.98202395	    -11.28472220	     45.33409481	    -62.72996165	    123.97092060	    -18.67663943	     96.16085550	    114.25055383
     52.44000000	   -158.51934061	      0.13988918	      8.97310074	      0.09134442	      1.52965388	     -0.00812494	    -22.43784339	      0.02211765	     -7.05700219	     93.55982502	    -11.45820578	     44.16956662	    -62.13654540	    123.13766165	    -19.19662166	     96.14651219	    114.26528003
     52.45000000	   -158.62620136	      0.15686724	      9.09868193	      0.09140972	      1.52980882	     -0.00825301	    -22.43076673	      0.13735713	     -6.91268695	     93.64500489	    -11.33207190	     43.97845756	    -62.02655630	    123.31617790	    -19.23896221	     96.12210522	    114.28331872
     52.46000000	   -158.71793098	      0.16123576	      9.20977488	      0.09145239	      1.52993501	     -0.00836481	    -22.44038706	      0.27621059	     -6.77669315	     93.67990861	    -11.22712337	     43.72232481	    -61.86956014	    123.38972840	    -19.33556191	     96.09934913	    114.64005832
     52.47000000	   -158.80240447	      0.16769242	      9.30065459	      0.09148939	      1.53004793	     -0.00847573	    -22.43577586	      0.38849660	     -6.64560721	     93.75335407	    -11.11360375	     43.54107729	    -61.76579153	    123.54657154	    -19.37790388	     96.05057475	    114.66465557
     52.48000000	   -158.87849140	      0.16550119	      9.37853370	      0.09148683	      1.53014637	     -0.00856755	    -22.44663380	      0.54867418	     -6.53368791	     93.73363665	    -11.04321444	     43.23438178	    -61.57653167	    123.52366291	    -19.50944482	     96.02005944	    115.14884785
     52.49000000	   -158.99033738	      0.18308386	      9.40791260	      0.09128232	      1.53028406	     -0.00865007	    -22.49401611	      1.03627656	     -6.56993204	     93.08028871	    -11.32211095	     41.86980797	    -60.80399200	    122.39138728	    -20.14913875	     95.97065428	    115.28307729
     52.50000000	   -159.04176308	      0.17970854	      9.46529174	      0.09128517	      1.53036566	     -0.00874162	    -22.49639802	      1.15206711	     -6.46907744	     93.12730179	    -11.23365463	     41.71197947	    -60.70856824	    122.49440316	    -20.19547317	     95.91747522	    115.55790796
     52.51000000	   -159.08580372	      0.17685476	      9.51244788	      0.09127239	      1.53044330	     -0.00883145	    -22.49882679	      1.27934776	     -6.38650727	     93.15378542	    -11.16609680	     41.53820595	    -60.60428194	    122.55457460	    -20.24902979	     95.86402664	    115.84961155
     52.52000000	   -159.12023919	      0.17475247	      9.55425091	      0.09125311	      1.53052171	     -0.00892300	    -22.50301160	      1.41079309	     -6.32232831	     93.16228185	    -11.11989783	     41.35149375	    -60.49603380	    122.57848312	    -20.30470779	     95.81150768	    116.14917658
     52.53000000	   -159.15137099	      0.17444865	      9.58994877	      0.09122837	      1.53060357	     -0.00901356	    -22.50319530	      1.54987513	     -6.27846957	     93.14636916	    -11.09770555	     41.14610097	    -60.37979001	    122.55919000	    -20.36549078	     95.76484185	    116.45989703
     52.54000000	   -159.17718831	      0.17226373	      9.62285723	      0.09119809	      1.53068480	     -0.00910261	    -22.50450217	      1.69361152	     -6.25454283	     93.10553840	    -11.10056439	     40.91663725	    -60.25201075	    122.49208409	    -20.43315592	     95.72504174	    116.76484306
     52.55000000	   -159.19515232	      0.17468146	      9.65428627	      0.09117289	      1.53077208	     -0.00919701	    -22.50742767	      1.84461434	     -6.25363709	     93.03508021	    -11.13213574	     40.65908064	    -60.11260160	    122.37305372	    -20.50737397	     95.69349136	    117.08077846
     52.56000000	   -159.20177773	      0.16928152	      9.68643631	      0.09117953	      1.53084847	     -0.00928365	    -22.50264934	      1.92977111	     -6.24934998	     93.07347386	    -11.13332545	     40.56301299	    -60.08929644	    122.42378374	    -20.47830482	     95.65219910	    117.10805761
     52.57000000	   -159.20781833	      0.17124902	      9.72045051	      0.09117785	      1.53093192	     -0.00938354	    -22.49687412	      2.05627252	     -6.27449369	     93.00717619	    -11.18398309	     40.35714134	    -59.98507928	    122.30814670	    -20.52244129	     95.65563896	    117.59011355
     52.58000000	   -159.25222046	      0.18514184	      9.71061439	      0.09098138	      1.53105742	     -0.00946404	    -22.58980357	      2.61175704	     -6.48727555	     92.02936637	    -11.67077896	     38.74697119	    -59.00557275	    120.73824125	    -21.23901521	     95.65489772	    117.74986739
     52.59000000	   -159.23668627	      0.17843687	      9.74608052	      0.09103210	      1.53112421	     -0.00955832	    -22.58151771	      2.66065488	     -6.52149995	     92.04836990	    -11.71088271	     38.67201099	    -59.01046187	    120.75408171	    -21.18692614	     95.66378450	    118.01151005
     52.60000000	   -159.21717395	      0.16917217	      9.77941258	      0.09108956	      1.53117317	     -0.00964778	    -22.57541952	      2.70451200	     -6.56963071	     92.06454292	    -11.76584648	     38.59692375	    -59.01548866	    120.74917005	    -21.13040728	     95.68026443	    118.26907650
     52.61000000	   -159.20083955	      0.15924322	      9.80558869	      0.09114875	      1.53121194	     -0.00973195	    -22.55907668	      2.73762029	     -6.62794460	     92.07107435	    -11.83360006	     38.51699824	    -59.02236985	    120.73061430	    -21.06973515	     95.70825895	    118.53337949
     52.62000000	   -159.17390566	      0.14701598	      9.82726442	      0.09121772	      1.53123492	     -0.00980820	    -22.55169194	      2.75653130	     -6.69538141	     92.08092895	    -11.91263882	     38.43621685	    -59.03381674	    120.70288412	    -21.00084562	     95.73790369	    118.75732738
     52.63000000	   -159.14907989	      0.13576359	      9.83980952	      0.09127320	      1.53122426	     -0.00988534	    -22.53568233	      2.78856893	     -6.77775641	     92.08679423	    -12.00225096	     38.37055724	    -59.03791532	    120.64613126	    -20.93567486	     95.78346100	    119.03382684
